<svg xmlns="http://www.w3.org/2000/svg" xmlns:xlink="http://www.w3.org/1999/xlink" width="1132pt" height="580" viewBox="0 0 1132 434.5"><g id="graph0" class="graph" transform="scale(1 1) rotate(0) translate(4 430.5)"><title>%3</title><polygon fill="#fff" stroke="transparent" points="-4 4 -4 -430.5 1128 -430.5 1128 4 -4 4"/><g id="node1" class="node"><title>DE-9</title><polygon fill="#fff" stroke="#000" points="248 -415 0 -415 0 0 248 0 248 -415"/><polygon fill="none" stroke="#000" points="0 -391.5 0 -414.5 248 -414.5 248 -391.5 0 -391.5"/><text x="108.5" y="-399.3" font-family="arial" font-size="14" text-anchor="start">DE-9</text><polygon fill="none" stroke="#000" points="0 -368.5 0 -391.5 88 -391.5 88 -368.5 0 -368.5"/><text x="24.5" y="-376.3" font-family="arial" font-size="14" text-anchor="start">D-Sub</text><polygon fill="none" stroke="#000" points="88 -368.5 88 -391.5 168 -391.5 168 -368.5 88 -368.5"/><text x="112.5" y="-376.3" font-family="arial" font-size="14" text-anchor="start">male</text><polygon fill="none" stroke="#000" points="168 -368.5 168 -391.5 248 -391.5 248 -368.5 168 -368.5"/><text x="192.5" y="-376.3" font-family="arial" font-size="14" text-anchor="start">9-pin</text><polygon fill="none" stroke="#000" points="0 -345.5 0 -368.5 164 -368.5 164 -345.5 0 -345.5"/><text x="72" y="-353.3" font-family="arial" font-size="14" text-anchor="start">NC</text><polygon fill="none" stroke="#000" points="164 -345.5 164 -368.5 248 -368.5 248 -345.5 164 -345.5"/><text x="202" y="-353.3" font-family="arial" font-size="14" text-anchor="start">1</text><polygon fill="none" stroke="#000" points="0 -322.5 0 -345.5 164 -345.5 164 -322.5 0 -322.5"/><text x="39" y="-330.3" font-family="arial" font-size="14" text-anchor="start">Baseband_TX</text><polygon fill="none" stroke="#000" points="164 -322.5 164 -345.5 248 -345.5 248 -322.5 164 -322.5"/><text x="202" y="-330.3" font-family="arial" font-size="14" text-anchor="start">2</text><polygon fill="none" stroke="#000" points="0 -299.5 0 -322.5 164 -322.5 164 -299.5 0 -299.5"/><text x="55.5" y="-307.3" font-family="arial" font-size="14" text-anchor="start">CAT_RX</text><polygon fill="none" stroke="#000" points="164 -299.5 164 -322.5 248 -322.5 248 -299.5 164 -299.5"/><text x="202" y="-307.3" font-family="arial" font-size="14" text-anchor="start">3</text><polygon fill="none" stroke="#000" points="0 -276.5 0 -299.5 164 -299.5 164 -276.5 0 -276.5"/><text x="56" y="-284.3" font-family="arial" font-size="14" text-anchor="start">CAT_TX</text><polygon fill="none" stroke="#000" points="164 -276.5 164 -299.5 248 -299.5 248 -276.5 164 -276.5"/><text x="202" y="-284.3" font-family="arial" font-size="14" text-anchor="start">4</text><polygon fill="none" stroke="#000" points="0 -253.5 0 -276.5 164 -276.5 164 -253.5 0 -253.5"/><text x="69" y="-261.3" font-family="arial" font-size="14" text-anchor="start">PTT</text><polygon fill="none" stroke="#000" points="164 -253.5 164 -276.5 248 -276.5 248 -253.5 164 -253.5"/><text x="202" y="-261.3" font-family="arial" font-size="14" text-anchor="start">5</text><polygon fill="none" stroke="#000" points="0 -230.5 0 -253.5 164 -253.5 164 -230.5 0 -230.5"/><text x="38" y="-238.3" font-family="arial" font-size="14" text-anchor="start">Baseband_RX</text><polygon fill="none" stroke="#000" points="164 -230.5 164 -253.5 248 -253.5 248 -230.5 164 -230.5"/><text x="202" y="-238.3" font-family="arial" font-size="14" text-anchor="start">6</text><polygon fill="none" stroke="#000" points="0 -207.5 0 -230.5 164 -230.5 164 -207.5 0 -207.5"/><text x="72" y="-215.3" font-family="arial" font-size="14" text-anchor="start">NC</text><polygon fill="none" stroke="#000" points="164 -207.5 164 -230.5 248 -230.5 248 -207.5 164 -207.5"/><text x="202" y="-215.3" font-family="arial" font-size="14" text-anchor="start">7</text><polygon fill="none" stroke="#000" points="0 -184.5 0 -207.5 164 -207.5 164 -184.5 0 -184.5"/><text x="66.5" y="-192.3" font-family="arial" font-size="14" text-anchor="start">GND</text><polygon fill="none" stroke="#000" points="164 -184.5 164 -207.5 248 -207.5 248 -184.5 164 -184.5"/><text x="202" y="-192.3" font-family="arial" font-size="14" text-anchor="start">8</text><polygon fill="none" stroke="#000" points="0 -161.5 0 -184.5 164 -184.5 164 -161.5 0 -161.5"/><text x="60.5" y="-169.3" font-family="arial" font-size="14" text-anchor="start">12V_In</text><polygon fill="none" stroke="#000" points="164 -161.5 164 -184.5 248 -184.5 248 -161.5 164 -161.5"/><text x="202" y="-169.3" font-family="arial" font-size="14" text-anchor="start">9</text><polygon fill="none" stroke="#000" points="0 .5 0 -161.5 248 -161.5 248 .5 0 .5"/><image width="240" height="154" x="4" y="-157.5" preserveAspectRatio="xMinYMin meet" xlink:href="dsub9.png"/></g><g id="node3" class="node"><title>Yaesu CT-39A</title><polygon fill="#fff" stroke="#000" points="738 -426.5 392 -426.5 392 -146.5 738 -146.5 738 -426.5"/><polygon fill="none" stroke="#000" points="392 -403.5 392 -426.5 738 -426.5 738 -403.5 392 -403.5"/><text x="521" y="-411.3" font-family="arial" font-size="14" text-anchor="start">Yaesu CT-39A</text><polygon fill="none" stroke="#000" points="392 -380.5 392 -403.5 584 -403.5 584 -380.5 392 -380.5"/><text x="450" y="-388.3" font-family="arial" font-size="14" text-anchor="start">P/N: CT-39A</text><polygon fill="none" stroke="#000" points="584 -380.5 584 -403.5 738 -403.5 738 -380.5 584 -380.5"/><text x="642" y="-388.3" font-family="arial" font-size="14" text-anchor="start">Yaesu</text><polygon fill="none" stroke="#000" points="392 -357.5 392 -380.5 492 -380.5 492 -357.5 392 -357.5"/><text x="434.5" y="-365.3" font-family="arial" font-size="14" text-anchor="start">6x</text><polygon fill="none" stroke="#000" points="492 -357.5 492 -380.5 629 -380.5 629 -357.5 492 -357.5"/><text x="534.5" y="-365.3" font-family="arial" font-size="14" text-anchor="start">24 AWG</text><polygon fill="none" stroke="#000" points="629 -357.5 629 -380.5 738 -380.5 738 -357.5 629 -357.5"/><text x="671.5" y="-365.3" font-family="arial" font-size="14" text-anchor="start">1 m</text><text x="394.5" y="-325.3" font-family="arial" font-size="14" text-anchor="start">DE-9:2:Baseband_TX</text><text x="533" y="-325.3" font-family="arial" font-size="14" text-anchor="start">1:BN</text><text x="606" y="-325.3" font-family="arial" font-size="14" text-anchor="start">Mini-DIN 6:1:Data_In</text><polygon fill="#000" stroke="transparent" points="392 -317.5 392 -319.5 738 -319.5 738 -317.5 392 -317.5"/><polygon fill="#895956" stroke="transparent" points="392 -315.5 392 -317.5 738 -317.5 738 -315.5 392 -315.5"/><polygon fill="#000" stroke="transparent" points="392 -313.5 392 -315.5 738 -315.5 738 -313.5 392 -313.5"/><text x="422" y="-300.3" font-family="arial" font-size="14" text-anchor="start">DE-9:8:GND</text><text x="532.5" y="-300.3" font-family="arial" font-size="14" text-anchor="start">2:RD</text><text x="614" y="-300.3" font-family="arial" font-size="14" text-anchor="start">Mini-DIN 6:2:GND</text><polygon fill="#000" stroke="transparent" points="392 -292.5 392 -294.5 738 -294.5 738 -292.5 392 -292.5"/><polygon fill="red" stroke="transparent" points="392 -290.5 392 -292.5 738 -292.5 738 -290.5 392 -290.5"/><polygon fill="#000" stroke="transparent" points="392 -288.5 392 -290.5 738 -290.5 738 -288.5 392 -288.5"/><text x="424.5" y="-275.3" font-family="arial" font-size="14" text-anchor="start">DE-9:5:PTT</text><text x="531" y="-275.3" font-family="arial" font-size="14" text-anchor="start">3:OG</text><text x="616.5" y="-275.3" font-family="arial" font-size="14" text-anchor="start">Mini-DIN 6:3:PTT</text><polygon fill="#000" stroke="transparent" points="392 -267.5 392 -269.5 738 -269.5 738 -267.5 392 -267.5"/><polygon fill="#ff8000" stroke="transparent" points="392 -265.5 392 -267.5 738 -267.5 738 -265.5 392 -265.5"/><polygon fill="#000" stroke="transparent" points="392 -263.5 392 -265.5 738 -265.5 738 -263.5 392 -263.5"/><text x="394" y="-250.3" font-family="arial" font-size="14" text-anchor="start">DE-9:6:Baseband_RX</text><text x="533" y="-250.3" font-family="arial" font-size="14" text-anchor="start">4:YE</text><text x="603" y="-250.3" font-family="arial" font-size="14" text-anchor="start">Mini-DIN 6:4:RX 9600</text><polygon fill="#000" stroke="transparent" points="392 -242.5 392 -244.5 738 -244.5 738 -242.5 392 -242.5"/><polygon fill="#ff0" stroke="transparent" points="392 -240.5 392 -242.5 738 -242.5 738 -240.5 392 -240.5"/><polygon fill="#000" stroke="transparent" points="392 -238.5 392 -240.5 738 -240.5 738 -238.5 392 -238.5"/><text x="531.5" y="-225.3" font-family="arial" font-size="14" text-anchor="start">5:GN</text><polygon fill="#000" stroke="transparent" points="392 -217.5 392 -219.5 738 -219.5 738 -217.5 392 -217.5"/><polygon fill="#0f0" stroke="transparent" points="392 -215.5 392 -217.5 738 -217.5 738 -215.5 392 -215.5"/><polygon fill="#000" stroke="transparent" points="392 -213.5 392 -215.5 738 -215.5 738 -213.5 392 -213.5"/><text x="533" y="-200.3" font-family="arial" font-size="14" text-anchor="start">6:BU</text><polygon fill="#000" stroke="transparent" points="392 -192.5 392 -194.5 738 -194.5 738 -192.5 392 -192.5"/><polygon fill="#06f" stroke="transparent" points="392 -190.5 392 -192.5 738 -192.5 738 -190.5 392 -190.5"/><polygon fill="#000" stroke="transparent" points="392 -188.5 392 -190.5 738 -190.5 738 -188.5 392 -188.5"/><polygon fill="none" stroke="#000" points="392 -146.5 392 -169.5 738 -169.5 738 -146.5 392 -146.5"/><text x="398.5" y="-154.3" font-family="arial" font-size="14" text-anchor="start">Yaesu 6 pin MiniDIN to bare wire packet interface cable</text></g><g id="edge1" class="edge"><title>DE-9:e--Yaesu CT-39A:w</title><path fill="none" stroke="#000" stroke-width="2" d="M248,-332.5C310.96,-333.22 325.97,-315.22 392,-314.5"/><path fill="none" stroke="#895956" stroke-width="2" d="M248,-334.5C312.5,-334.5 327.5,-316.5 392,-316.5"/><path fill="none" stroke="#000" stroke-width="2" d="M248,-336.5C314.03,-335.78 329.04,-317.78 392,-318.5"/></g><g id="edge3" class="edge"><title>DE-9:e--Yaesu CT-39A:w</title><path fill="none" stroke="#000" stroke-width="2" d="M248,-263.5C312.13,-263.5 328.12,-264.5 392,-264.5"/><path fill="none" stroke="#ff8000" stroke-width="2" d="M248,-265.5C312,-265.5 328,-266.5 392,-266.5"/><path fill="none" stroke="#000" stroke-width="2" d="M248,-267.5C311.88,-267.5 327.87,-268.5 392,-268.5"/></g><g id="edge5" class="edge"><title>DE-9:e--Yaesu CT-39A:w</title><path fill="none" stroke="#000" stroke-width="2" d="M248,-240.5C311.88,-240.5 327.87,-239.5 392,-239.5"/><path fill="none" stroke="#ff0" stroke-width="2" d="M248,-242.5C312,-242.5 328,-241.5 392,-241.5"/><path fill="none" stroke="#000" stroke-width="2" d="M248,-244.5C312.13,-244.5 328.12,-243.5 392,-243.5"/></g><g id="edge7" class="edge"><title>DE-9:e--Yaesu CT-39A:w</title><path fill="none" stroke="#000" stroke-width="2" d="M248,-193.5C326.91,-195.7 317.07,-291.7 392,-289.5"/><path fill="none" stroke="red" stroke-width="2" d="M248,-195.5C324.92,-195.5 315.08,-291.5 392,-291.5"/><path fill="none" stroke="#000" stroke-width="2" d="M248,-197.5C322.93,-195.3 313.09,-291.3 392,-293.5"/></g><g id="node2" class="node"><title>Mini-DIN 6</title><polygon fill="#fff" stroke="#000" points="1124 -370.5 882 -370.5 882 -46.5 1124 -46.5 1124 -370.5"/><polygon fill="none" stroke="#000" points="882 -347.5 882 -370.5 1124 -370.5 1124 -347.5 882 -347.5"/><text x="970.5" y="-355.3" font-family="arial" font-size="14" text-anchor="start">Mini-DIN 6</text><polygon fill="none" stroke="#000" points="882 -324.5 882 -347.5 1001 -347.5 1001 -324.5 882 -324.5"/><text x="897.5" y="-332.3" font-family="arial" font-size="14" text-anchor="start">6-pin Mini-DIN</text><polygon fill="none" stroke="#000" points="1001 -324.5 1001 -347.5 1063 -347.5 1063 -324.5 1001 -324.5"/><text x="1016.5" y="-332.3" font-family="arial" font-size="14" text-anchor="start">male</text><polygon fill="none" stroke="#000" points="1063 -324.5 1063 -347.5 1124 -347.5 1124 -324.5 1063 -324.5"/><text x="1078" y="-332.3" font-family="arial" font-size="14" text-anchor="start">6-pin</text><polygon fill="none" stroke="#000" points="882 -301.5 882 -324.5 981 -324.5 981 -301.5 882 -301.5"/><text x="927.5" y="-309.3" font-family="arial" font-size="14" text-anchor="start">1</text><polygon fill="none" stroke="#000" points="981 -301.5 981 -324.5 1124 -324.5 1124 -301.5 981 -301.5"/><text x="1028.5" y="-309.3" font-family="arial" font-size="14" text-anchor="start">Data_In</text><polygon fill="none" stroke="#000" points="882 -278.5 882 -301.5 981 -301.5 981 -278.5 882 -278.5"/><text x="927.5" y="-286.3" font-family="arial" font-size="14" text-anchor="start">2</text><polygon fill="none" stroke="#000" points="981 -278.5 981 -301.5 1124 -301.5 1124 -278.5 981 -278.5"/><text x="1037" y="-286.3" font-family="arial" font-size="14" text-anchor="start">GND</text><polygon fill="none" stroke="#000" points="882 -255.5 882 -278.5 981 -278.5 981 -255.5 882 -255.5"/><text x="927.5" y="-263.3" font-family="arial" font-size="14" text-anchor="start">3</text><polygon fill="none" stroke="#000" points="981 -255.5 981 -278.5 1124 -278.5 1124 -255.5 981 -255.5"/><text x="1039.5" y="-263.3" font-family="arial" font-size="14" text-anchor="start">PTT</text><polygon fill="none" stroke="#000" points="882 -232.5 882 -255.5 981 -255.5 981 -232.5 882 -232.5"/><text x="927.5" y="-240.3" font-family="arial" font-size="14" text-anchor="start">4</text><polygon fill="none" stroke="#000" points="981 -232.5 981 -255.5 1124 -255.5 1124 -232.5 981 -232.5"/><text x="1026" y="-240.3" font-family="arial" font-size="14" text-anchor="start">RX 9600</text><polygon fill="none" stroke="#000" points="882 -209.5 882 -232.5 981 -232.5 981 -209.5 882 -209.5"/><text x="927.5" y="-217.3" font-family="arial" font-size="14" text-anchor="start">5</text><polygon fill="none" stroke="#000" points="981 -209.5 981 -232.5 1124 -232.5 1124 -209.5 981 -209.5"/><text x="1026" y="-217.3" font-family="arial" font-size="14" text-anchor="start">RX 1200</text><polygon fill="none" stroke="#000" points="882 -186.5 882 -209.5 981 -209.5 981 -186.5 882 -186.5"/><text x="927.5" y="-194.3" font-family="arial" font-size="14" text-anchor="start">6</text><polygon fill="none" stroke="#000" points="981 -186.5 981 -209.5 1124 -209.5 1124 -186.5 981 -186.5"/><text x="1027.5" y="-194.3" font-family="arial" font-size="14" text-anchor="start">PK SQL</text><polygon fill="none" stroke="#000" points="882 -46.5 882 -186.5 1124 -186.5 1124 -46.5 882 -46.5"/><image width="234" height="132" x="886" y="-182.5" preserveAspectRatio="xMinYMin meet" xlink:href="minidin6.png"/></g><g id="edge2" class="edge"><title>Yaesu CT-39A:e--Mini-DIN 6:w</title><path fill="none" stroke="#000" stroke-width="2" d="M738,-314.5C801.64,-314.53 817.62,-311.53 882,-311.5"/><path fill="none" stroke="#895956" stroke-width="2" d="M738,-316.5C802.01,-316.5 817.99,-313.5 882,-313.5"/><path fill="none" stroke="#000" stroke-width="2" d="M738,-318.5C802.38,-318.47 818.36,-315.47 882,-315.5"/></g><g id="edge4" class="edge"><title>Yaesu CT-39A:e--Mini-DIN 6:w</title><path fill="none" stroke="#000" stroke-width="2" d="M738,-264.5C802.13,-264.5 818.12,-265.5 882,-265.5"/><path fill="none" stroke="#ff8000" stroke-width="2" d="M738,-266.5C802,-266.5 818,-267.5 882,-267.5"/><path fill="none" stroke="#000" stroke-width="2" d="M738,-268.5C801.88,-268.5 817.87,-269.5 882,-269.5"/></g><g id="edge6" class="edge"><title>Yaesu CT-39A:e--Mini-DIN 6:w</title><path fill="none" stroke="#000" stroke-width="2" d="M738,-239.5C802.38,-239.53 818.36,-242.53 882,-242.5"/><path fill="none" stroke="#ff0" stroke-width="2" d="M738,-241.5C802.01,-241.5 817.99,-244.5 882,-244.5"/><path fill="none" stroke="#000" stroke-width="2" d="M738,-243.5C801.64,-243.47 817.62,-246.47 882,-246.5"/></g><g id="edge8" class="edge"><title>Yaesu CT-39A:e--Mini-DIN 6:w</title><path fill="none" stroke="#000" stroke-width="2" d="M738,-289.5C801.88,-289.5 817.87,-288.5 882,-288.5"/><path fill="none" stroke="red" stroke-width="2" d="M738,-291.5C802,-291.5 818,-290.5 882,-290.5"/><path fill="none" stroke="#000" stroke-width="2" d="M738,-293.5C802.13,-293.5 818.12,-292.5 882,-292.5"/></g></g></svg>