<svg xmlns="http://www.w3.org/2000/svg" xmlns:xlink="http://www.w3.org/1999/xlink" width="1700" height="536pt" viewBox="0 0 1275 536"><g id="graph0" class="graph" transform="scale(1 1) rotate(0) translate(4 532)"><polygon fill="#fff" stroke="none" points="-4 4 -4 -532 1271 -532 1271 4 -4 4"/><g id="node1" class="node"><title>DE-9</title><polygon fill="#fff" stroke="#000" points="125 -507.5 0 -507.5 0 -202.5 125 -202.5 125 -507.5"/><polygon fill="none" stroke="#000" points=".5 -484 .5 -507 125.5 -507 125.5 -484 .5 -484"/><text x="47.5" y="-491.8" font-family="arial" font-size="14" text-anchor="start">DE-9</text><polygon fill="none" stroke="#000" points=".5 -461 .5 -484 47.5 -484 47.5 -461 .5 -461"/><text x="4.5" y="-468.8" font-family="arial" font-size="14" text-anchor="start">D-Sub</text><polygon fill="none" stroke="#000" points="47.5 -461 47.5 -484 86.5 -484 86.5 -461 47.5 -461"/><text x="51.5" y="-468.8" font-family="arial" font-size="14" text-anchor="start">male</text><polygon fill="none" stroke="#000" points="86.5 -461 86.5 -484 125.5 -484 125.5 -461 86.5 -461"/><text x="90.5" y="-468.8" font-family="arial" font-size="14" text-anchor="start">9-pin</text><polygon fill="none" stroke="#000" points=".5 -438 .5 -461 103.5 -461 103.5 -438 .5 -438"/><text x="42" y="-445.8" font-family="arial" font-size="14" text-anchor="start">NC</text><polygon fill="none" stroke="#000" points="103.5 -438 103.5 -461 125.5 -461 125.5 -438 103.5 -438"/><text x="110.5" y="-445.8" font-family="arial" font-size="14" text-anchor="start">1</text><polygon fill="none" stroke="#000" points=".5 -415 .5 -438 103.5 -438 103.5 -415 .5 -415"/><text x="9" y="-422.8" font-family="arial" font-size="14" text-anchor="start">Baseband_TX</text><polygon fill="none" stroke="#000" points="103.5 -415 103.5 -438 125.5 -438 125.5 -415 103.5 -415"/><text x="110.5" y="-422.8" font-family="arial" font-size="14" text-anchor="start">2</text><polygon fill="none" stroke="#000" points=".5 -392 .5 -415 103.5 -415 103.5 -392 .5 -392"/><text x="25.5" y="-399.8" font-family="arial" font-size="14" text-anchor="start">CAT_RX</text><polygon fill="none" stroke="#000" points="103.5 -392 103.5 -415 125.5 -415 125.5 -392 103.5 -392"/><text x="110.5" y="-399.8" font-family="arial" font-size="14" text-anchor="start">3</text><polygon fill="none" stroke="#000" points=".5 -369 .5 -392 103.5 -392 103.5 -369 .5 -369"/><text x="26" y="-376.8" font-family="arial" font-size="14" text-anchor="start">CAT_TX</text><polygon fill="none" stroke="#000" points="103.5 -369 103.5 -392 125.5 -392 125.5 -369 103.5 -369"/><text x="110.5" y="-376.8" font-family="arial" font-size="14" text-anchor="start">4</text><polygon fill="none" stroke="#000" points=".5 -346 .5 -369 103.5 -369 103.5 -346 .5 -346"/><text x="39" y="-353.8" font-family="arial" font-size="14" text-anchor="start">PTT</text><polygon fill="none" stroke="#000" points="103.5 -346 103.5 -369 125.5 -369 125.5 -346 103.5 -346"/><text x="110.5" y="-353.8" font-family="arial" font-size="14" text-anchor="start">5</text><polygon fill="none" stroke="#000" points=".5 -323 .5 -346 103.5 -346 103.5 -323 .5 -323"/><text x="8" y="-330.8" font-family="arial" font-size="14" text-anchor="start">Baseband_RX</text><polygon fill="none" stroke="#000" points="103.5 -323 103.5 -346 125.5 -346 125.5 -323 103.5 -323"/><text x="110.5" y="-330.8" font-family="arial" font-size="14" text-anchor="start">6</text><polygon fill="none" stroke="#000" points=".5 -300 .5 -323 103.5 -323 103.5 -300 .5 -300"/><text x="42" y="-307.8" font-family="arial" font-size="14" text-anchor="start">NC</text><polygon fill="none" stroke="#000" points="103.5 -300 103.5 -323 125.5 -323 125.5 -300 103.5 -300"/><text x="110.5" y="-307.8" font-family="arial" font-size="14" text-anchor="start">7</text><polygon fill="none" stroke="#000" points=".5 -277 .5 -300 103.5 -300 103.5 -277 .5 -277"/><text x="36.5" y="-284.8" font-family="arial" font-size="14" text-anchor="start">GND</text><polygon fill="none" stroke="#000" points="103.5 -277 103.5 -300 125.5 -300 125.5 -277 103.5 -277"/><text x="110.5" y="-284.8" font-family="arial" font-size="14" text-anchor="start">8</text><polygon fill="none" stroke="#000" points=".5 -254 .5 -277 103.5 -277 103.5 -254 .5 -254"/><text x="30.5" y="-261.8" font-family="arial" font-size="14" text-anchor="start">12V_In</text><polygon fill="none" stroke="#000" points="103.5 -254 103.5 -277 125.5 -277 125.5 -254 103.5 -254"/><text x="110.5" y="-261.8" font-family="arial" font-size="14" text-anchor="start">9</text><polygon fill="none" stroke="#000" points=".5 -202 .5 -254 125.5 -254 125.5 -202 .5 -202"/><image width="117" height="44" x="4.5" y="-250" preserveAspectRatio="xMinYMin meet" xlink:href="dsub9.svg"/></g><g id="node3" class="node"><title>CT-167</title><polygon fill="#fff" stroke="#000" points="635 -528 269 -528 269 -148 635 -148 635 -528"/><polygon fill="none" stroke="#000" points="269 -505 269 -528 635 -528 635 -505 269 -505"/><text x="429.5" y="-512.8" font-family="arial" font-size="14" text-anchor="start">CT-167</text><polygon fill="none" stroke="#000" points="269 -482 269 -505 471 -505 471 -482 269 -482"/><text x="332.5" y="-489.8" font-family="arial" font-size="14" text-anchor="start">P/N: CT-167</text><polygon fill="none" stroke="#000" points="471 -482 471 -505 635 -505 635 -482 471 -482"/><text x="534" y="-489.8" font-family="arial" font-size="14" text-anchor="start">Yaesu</text><polygon fill="none" stroke="#000" points="269 -459 269 -482 435 -482 435 -459 269 -459"/><text x="286" y="-466.8" font-family="arial" font-size="14" text-anchor="start">Cable CT-167 (pigtail)</text><polygon fill="none" stroke="#000" points="435 -459 435 -482 491 -482 491 -459 435 -459"/><text x="452" y="-466.8" font-family="arial" font-size="14" text-anchor="start">10x</text><polygon fill="none" stroke="#000" points="491 -459 491 -482 577 -482 577 -459 491 -459"/><text x="508" y="-466.8" font-family="arial" font-size="14" text-anchor="start">24 AWG</text><polygon fill="none" stroke="#000" points="577 -459 577 -482 635 -482 635 -459 577 -459"/><text x="594" y="-466.8" font-family="arial" font-size="14" text-anchor="start">1 m</text><text x="273" y="-426.8" font-family="arial" font-size="14" text-anchor="start">DE-9:2:Baseband_TX</text><text x="416" y="-426.8" font-family="arial" font-size="14" text-anchor="start">1:BN</text><text x="503" y="-426.8" font-family="arial" font-size="14" text-anchor="start">mini-DIN-10:1:PKD</text><polygon fill="#000" stroke="none" points="269 -419 269 -421 635 -421 635 -419 269 -419"/><polygon fill="#895956" stroke="none" points="269 -417 269 -419 635 -419 635 -417 269 -417"/><polygon fill="#000" stroke="none" points="269 -415 269 -417 635 -417 635 -415 269 -415"/><text x="300.5" y="-401.8" font-family="arial" font-size="14" text-anchor="start">DE-9:8:GND</text><text x="416" y="-401.8" font-family="arial" font-size="14" text-anchor="start">2:BK</text><text x="501.5" y="-401.8" font-family="arial" font-size="14" text-anchor="start">mini-DIN-10:2:GND</text><polygon fill="#000" stroke="none" points="269 -394 269 -396 635 -396 635 -394 269 -394"/><polygon fill="#000" stroke="none" points="269 -392 269 -394 635 -394 635 -392 269 -392"/><polygon fill="#000" stroke="none" points="269 -390 269 -392 635 -392 635 -390 269 -390"/><text x="303" y="-376.8" font-family="arial" font-size="14" text-anchor="start">DE-9:5:PTT</text><text x="415.5" y="-376.8" font-family="arial" font-size="14" text-anchor="start">3:RD</text><text x="503.5" y="-376.8" font-family="arial" font-size="14" text-anchor="start">mini-DIN-10:3:PSK</text><polygon fill="#000" stroke="none" points="269 -369 269 -371 635 -371 635 -369 269 -369"/><polygon fill="red" stroke="none" points="269 -367 269 -369 635 -369 635 -367 269 -367"/><polygon fill="#000" stroke="none" points="269 -365 269 -367 635 -367 635 -365 269 -365"/><text x="272.5" y="-351.8" font-family="arial" font-size="14" text-anchor="start">DE-9:6:Baseband_RX</text><text x="414" y="-351.8" font-family="arial" font-size="14" text-anchor="start">4:OG</text><text x="490.5" y="-351.8" font-family="arial" font-size="14" text-anchor="start">mini-DIN-10:4:RX 9600</text><polygon fill="#000" stroke="none" points="269 -344 269 -346 635 -346 635 -344 269 -344"/><polygon fill="#ff8000" stroke="none" points="269 -342 269 -344 635 -344 635 -342 269 -342"/><polygon fill="#000" stroke="none" points="269 -340 269 -342 635 -342 635 -340 269 -340"/><text x="416" y="-326.8" font-family="arial" font-size="14" text-anchor="start">5:YE</text><polygon fill="#000" stroke="none" points="269 -319 269 -321 635 -321 635 -319 269 -319"/><polygon fill="#ff0" stroke="none" points="269 -317 269 -319 635 -319 635 -317 269 -317"/><polygon fill="#000" stroke="none" points="269 -315 269 -317 635 -317 635 -315 269 -315"/><text x="414.5" y="-301.8" font-family="arial" font-size="14" text-anchor="start">6:GN</text><polygon fill="#000" stroke="none" points="269 -294 269 -296 635 -296 635 -294 269 -294"/><polygon fill="#0f0" stroke="none" points="269 -292 269 -294 635 -294 635 -292 269 -292"/><polygon fill="#000" stroke="none" points="269 -290 269 -292 635 -292 635 -290 269 -290"/><text x="289.5" y="-276.8" font-family="arial" font-size="14" text-anchor="start">DE-9:3:CAT_RX</text><text x="416" y="-276.8" font-family="arial" font-size="14" text-anchor="start">7:BU</text><text x="503.5" y="-276.8" font-family="arial" font-size="14" text-anchor="start">mini-DIN-10:7:TXD</text><polygon fill="#000" stroke="none" points="269 -269 269 -271 635 -271 635 -269 269 -269"/><polygon fill="#06f" stroke="none" points="269 -267 269 -269 635 -269 635 -267 269 -267"/><polygon fill="#000" stroke="none" points="269 -265 269 -267 635 -267 635 -265 269 -265"/><text x="290.5" y="-251.8" font-family="arial" font-size="14" text-anchor="start">DE-9:4:CAT_TX</text><text x="415" y="-251.8" font-family="arial" font-size="14" text-anchor="start">8:GY</text><text x="502.5" y="-251.8" font-family="arial" font-size="14" text-anchor="start">mini-DIN-10:8:RXD</text><polygon fill="#000" stroke="none" points="269 -244 269 -246 635 -246 635 -244 269 -244"/><polygon fill="#999" stroke="none" points="269 -242 269 -244 635 -244 635 -242 269 -242"/><polygon fill="#000" stroke="none" points="269 -240 269 -242 635 -242 635 -240 269 -240"/><text x="413.5" y="-226.8" font-family="arial" font-size="14" text-anchor="start">9:WH</text><polygon fill="#000" stroke="none" points="269 -219 269 -221 635 -221 635 -219 269 -219"/><polygon fill="#fff" stroke="none" points="269 -217 269 -219 635 -219 635 -217 269 -217"/><polygon fill="#000" stroke="none" points="269 -215 269 -217 635 -217 635 -215 269 -215"/><text x="412.5" y="-201.8" font-family="arial" font-size="14" text-anchor="start">10:BK</text><polygon fill="#000" stroke="none" points="269 -194 269 -196 635 -196 635 -194 269 -194"/><polygon fill="#000" stroke="none" points="269 -192 269 -194 635 -194 635 -192 269 -192"/><polygon fill="#000" stroke="none" points="269 -190 269 -192 635 -192 635 -190 269 -190"/><polygon fill="none" stroke="#000" points="269 -148 269 -171 635 -171 635 -148 269 -148"/><text x="273" y="-155.8" font-family="arial" font-size="14" text-anchor="start">NOTE: The CT-167 cable uses the thick black wire for GND</text></g><g id="edge1" class="edge"><title>DE-9:e--CT-167:w</title><path fill="none" stroke="#000" stroke-width="2" d="M125,-425C188.13,-425.26 203.88,-416.26 269,-416"/><path fill="none" stroke="#895956" stroke-width="2" d="M125,-427C189.12,-427 204.88,-418 269,-418"/><path fill="none" stroke="#000" stroke-width="2" d="M125,-429C190.12,-428.74 205.87,-419.74 269,-420"/></g><g id="edge3" class="edge"><title>DE-9:e--CT-167:w</title><path fill="none" stroke="#000" stroke-width="2" d="M125,-402C211.08,-404.46 179.02,-268.46 269,-266"/><path fill="none" stroke="#06f" stroke-width="2" d="M125,-404C213.03,-404 180.97,-268 269,-268"/><path fill="none" stroke="#000" stroke-width="2" d="M125,-406C214.98,-403.54 182.92,-267.54 269,-270"/></g><g id="edge5" class="edge"><title>DE-9:e--CT-167:w</title><path fill="none" stroke="#000" stroke-width="2" d="M125,-379C211.7,-381.47 178.41,-243.47 269,-241"/><path fill="none" stroke="#999" stroke-width="2" d="M125,-381C213.64,-381 180.36,-243 269,-243"/><path fill="none" stroke="#000" stroke-width="2" d="M125,-383C215.59,-380.53 182.3,-242.53 269,-245"/></g><g id="edge7" class="edge"><title>DE-9:e--CT-167:w</title><path fill="none" stroke="#000" stroke-width="2" d="M125,-356C190.23,-356.31 205.92,-366.31 269,-366"/><path fill="none" stroke="red" stroke-width="2" d="M125,-358C189.15,-358 204.85,-368 269,-368"/><path fill="none" stroke="#000" stroke-width="2" d="M125,-360C188.08,-359.69 203.77,-369.69 269,-370"/></g><g id="edge9" class="edge"><title>DE-9:e--CT-167:w</title><path fill="none" stroke="#000" stroke-width="2" d="M125,-332C190.12,-332.26 205.87,-341.26 269,-341"/><path fill="none" stroke="#ff8000" stroke-width="2" d="M125,-334C189.12,-334 204.88,-343 269,-343"/><path fill="none" stroke="#000" stroke-width="2" d="M125,-336C188.13,-335.74 203.88,-344.74 269,-345"/></g><g id="edge11" class="edge"><title>DE-9:e--CT-167:w</title><path fill="none" stroke="#000" stroke-width="2" d="M125,-286C206.19,-288.27 191.77,-393.27 269,-391"/><path fill="none" stroke="#000" stroke-width="2" d="M125,-288C204.21,-288 189.79,-393 269,-393"/><path fill="none" stroke="#000" stroke-width="2" d="M125,-290C202.23,-287.73 187.81,-392.73 269,-395"/></g><g id="node2" class="node"><title>mini-DIN-10</title><polygon fill="#fff" stroke="#000" points="1267 -470 779 -470 779 0 1267 0 1267 -470"/><polygon fill="none" stroke="#000" points="779 -447 779 -470 1267 -470 1267 -447 779 -447"/><text x="986.5" y="-454.8" font-family="arial" font-size="14" text-anchor="start">mini-DIN-10</text><polygon fill="none" stroke="#000" points="779 -424 779 -447 980 -447 980 -424 779 -424"/><text x="834" y="-431.8" font-family="arial" font-size="14" text-anchor="start">10-pin miniDIN</text><polygon fill="none" stroke="#000" points="980 -424 980 -447 1120 -447 1120 -424 980 -424"/><text x="1034.5" y="-431.8" font-family="arial" font-size="14" text-anchor="start">male</text><polygon fill="none" stroke="#000" points="1120 -424 1120 -447 1267 -447 1267 -424 1120 -424"/><text x="1174.5" y="-431.8" font-family="arial" font-size="14" text-anchor="start">10-pin</text><polygon fill="none" stroke="#000" points="779 -401 779 -424 1005 -424 1005 -401 779 -401"/><text x="888" y="-408.8" font-family="arial" font-size="14" text-anchor="start">1</text><polygon fill="none" stroke="#000" points="1005 -401 1005 -424 1267 -424 1267 -401 1005 -401"/><text x="1122" y="-408.8" font-family="arial" font-size="14" text-anchor="start">PKD</text><polygon fill="none" stroke="#000" points="779 -378 779 -401 1005 -401 1005 -378 779 -378"/><text x="888" y="-385.8" font-family="arial" font-size="14" text-anchor="start">2</text><polygon fill="none" stroke="#000" points="1005 -378 1005 -401 1267 -401 1267 -378 1005 -378"/><text x="1120.5" y="-385.8" font-family="arial" font-size="14" text-anchor="start">GND</text><polygon fill="none" stroke="#000" points="779 -355 779 -378 1005 -378 1005 -355 779 -355"/><text x="888" y="-362.8" font-family="arial" font-size="14" text-anchor="start">3</text><polygon fill="none" stroke="#000" points="1005 -355 1005 -378 1267 -378 1267 -355 1005 -355"/><text x="1122" y="-362.8" font-family="arial" font-size="14" text-anchor="start">PSK</text><polygon fill="none" stroke="#000" points="779 -332 779 -355 1005 -355 1005 -332 779 -332"/><text x="888" y="-339.8" font-family="arial" font-size="14" text-anchor="start">4</text><polygon fill="none" stroke="#000" points="1005 -332 1005 -355 1267 -355 1267 -332 1005 -332"/><text x="1109.5" y="-339.8" font-family="arial" font-size="14" text-anchor="start">RX 9600</text><polygon fill="none" stroke="#000" points="779 -309 779 -332 1005 -332 1005 -309 779 -309"/><text x="888" y="-316.8" font-family="arial" font-size="14" text-anchor="start">5</text><polygon fill="none" stroke="#000" points="1005 -309 1005 -332 1267 -332 1267 -309 1005 -309"/><text x="1109.5" y="-316.8" font-family="arial" font-size="14" text-anchor="start">RX 1200</text><polygon fill="none" stroke="#000" points="779 -286 779 -309 1005 -309 1005 -286 779 -286"/><text x="888" y="-293.8" font-family="arial" font-size="14" text-anchor="start">6</text><polygon fill="none" stroke="#000" points="1005 -286 1005 -309 1267 -309 1267 -286 1005 -286"/><text x="1111" y="-293.8" font-family="arial" font-size="14" text-anchor="start">PK SQL</text><polygon fill="none" stroke="#000" points="779 -263 779 -286 1005 -286 1005 -263 779 -263"/><text x="888" y="-270.8" font-family="arial" font-size="14" text-anchor="start">7</text><polygon fill="none" stroke="#000" points="1005 -263 1005 -286 1267 -286 1267 -263 1005 -263"/><text x="1122" y="-270.8" font-family="arial" font-size="14" text-anchor="start">TXD</text><polygon fill="none" stroke="#000" points="779 -240 779 -263 1005 -263 1005 -240 779 -240"/><text x="888" y="-247.8" font-family="arial" font-size="14" text-anchor="start">8</text><polygon fill="none" stroke="#000" points="1005 -240 1005 -263 1267 -263 1267 -240 1005 -240"/><text x="1121.5" y="-247.8" font-family="arial" font-size="14" text-anchor="start">RXD</text><polygon fill="none" stroke="#000" points="779 -217 779 -240 1005 -240 1005 -217 779 -217"/><text x="888" y="-224.8" font-family="arial" font-size="14" text-anchor="start">9</text><polygon fill="none" stroke="#000" points="1005 -217 1005 -240 1267 -240 1267 -217 1005 -217"/><text x="1122" y="-224.8" font-family="arial" font-size="14" text-anchor="start">CTS</text><polygon fill="none" stroke="#000" points="779 -194 779 -217 1005 -217 1005 -194 779 -194"/><text x="884" y="-201.8" font-family="arial" font-size="14" text-anchor="start">10</text><polygon fill="none" stroke="#000" points="1005 -194 1005 -217 1267 -217 1267 -194 1005 -194"/><text x="1122" y="-201.8" font-family="arial" font-size="14" text-anchor="start">RTS</text><polygon fill="none" stroke="#000" points="779 0 779 -194 1267 -194 1267 0 779 0"/><image width="480" height="186" x="783" y="-190" preserveAspectRatio="xMinYMin meet" xlink:href="minidin10.png"/></g><g id="edge2" class="edge"><title>CT-167:e--mini-DIN-10:w</title><path fill="none" stroke="#000" stroke-width="2" d="M635,-416C698.44,-416.09 714.36,-411.09 779,-411"/><path fill="none" stroke="#895956" stroke-width="2" d="M635,-418C699.04,-418 714.96,-413 779,-413"/><path fill="none" stroke="#000" stroke-width="2" d="M635,-420C699.64,-419.91 715.56,-414.91 779,-415"/></g><g id="edge4" class="edge"><title>CT-167:e--mini-DIN-10:w</title><path fill="none" stroke="#000" stroke-width="2" d="M635,-266C699.88,-266.17 715.73,-273.17 779,-273"/><path fill="none" stroke="#06f" stroke-width="2" d="M635,-268C699.08,-268 714.92,-275 779,-275"/><path fill="none" stroke="#000" stroke-width="2" d="M635,-270C698.27,-269.83 714.12,-276.83 779,-277"/></g><g id="edge6" class="edge"><title>CT-167:e--mini-DIN-10:w</title><path fill="none" stroke="#000" stroke-width="2" d="M635,-241C700.12,-241.26 715.87,-250.26 779,-250"/><path fill="none" stroke="#999" stroke-width="2" d="M635,-243C699.12,-243 714.88,-252 779,-252"/><path fill="none" stroke="#000" stroke-width="2" d="M635,-245C698.13,-244.74 713.88,-253.74 779,-254"/></g><g id="edge8" class="edge"><title>CT-167:e--mini-DIN-10:w</title><path fill="none" stroke="#000" stroke-width="2" d="M635,-366C698.88,-366 714.87,-365 779,-365"/><path fill="none" stroke="red" stroke-width="2" d="M635,-368C699,-368 715,-367 779,-367"/><path fill="none" stroke="#000" stroke-width="2" d="M635,-370C699.13,-370 715.12,-369 779,-369"/></g><g id="edge10" class="edge"><title>CT-167:e--mini-DIN-10:w</title><path fill="none" stroke="#000" stroke-width="2" d="M635,-341C699.13,-341 715.12,-342 779,-342"/><path fill="none" stroke="#ff8000" stroke-width="2" d="M635,-343C699,-343 715,-344 779,-344"/><path fill="none" stroke="#000" stroke-width="2" d="M635,-345C698.88,-345 714.87,-346 779,-346"/></g><g id="edge12" class="edge"><title>CT-167:e--mini-DIN-10:w</title><path fill="none" stroke="#000" stroke-width="2" d="M635,-391C698.64,-391.03 714.62,-388.03 779,-388"/><path fill="none" stroke="#000" stroke-width="2" d="M635,-393C699.01,-393 714.99,-390 779,-390"/><path fill="none" stroke="#000" stroke-width="2" d="M635,-395C699.38,-394.97 715.36,-391.97 779,-392"/></g></g></svg>