<svg xmlns="http://www.w3.org/2000/svg" xmlns:svg="http://www.w3.org/2000/svg" id="svg108" width="118.178" height="59.198" version="1.1"><metadata id="metadata211">image/svg+xml</metadata>front view male connector<g id="g106" transform="translate(-1.376007,-18.445747)"><title id="title75">Layer 1</title><g id="g2237"><path id="path2239" fill="#fff" stroke="#000" stroke-width="2" d="m 118.55301,61.108749 c 0,3.311996 -2.685,5.999008 -6,5.999008 H 8.376007 c -3.315002,0 -6,-2.687012 -6,-5.999008 V 25.445755 c 0,-3.316002 2.684998,-6.000008 6,-6.000008 H 112.554 c 3.315,0 6,2.684006 6,6.000008 v 35.662994 z"/><g id="g2241"><circle id="pin1" cx="38.41" cy="37.708" r="2.24" fill="#000" stroke="#000"/><circle id="pin2" cx="49.44" cy="37.708" r="2.24" fill="#000" stroke="#000"/><circle id="pin3" cx="60.47" cy="37.708" r="2.238" fill="#000" stroke="#000"/><circle id="circle81" cx="71.5" cy="37.708" r="2.238" fill="#000" stroke="#000"/><circle id="pin5" cx="82.53" cy="37.708" r="2.24" fill="#000" stroke="#000"/><circle id="pin6" cx="43.924" cy="48.848" r="2.24" fill="#000" stroke="#000"/><circle id="pin7" cx="54.954" cy="48.848" r="2.24" fill="#000" stroke="#000"/><circle id="pin8" cx="65.984" cy="48.848" r="2.24" fill="#000" stroke="#000"/><circle id="pin9" cx="77.014" cy="48.848" r="2.24" fill="#000" stroke="#000"/></g><path id="shield" fill="none" stroke="#000" d="m 35.465012,26.578751 c -5.608994,0 -9.399994,4.518005 -8.424995,10.042007 l 2.353996,13.30899 c 0.975998,5.525009 6.365997,10.048996 11.974998,10.048996 h 38.191002 c 5.608002,0 10.996002,-4.522995 11.974998,-10.048996 l 2.354004,-13.30899 C 94.864013,31.096756 91.076011,26.578751 85.464012,26.578751 H 35.465011 Z"/><g id="g2263"><circle id="screw1" cx="13.581" cy="43.279" r="5.053" fill="none" stroke="#000"/><circle id="screw2" cx="107.349" cy="43.279" r="5.055" fill="none" stroke="#000"/></g></g><text id="text4353" x="85.117" y="34.256" fill="#000" stroke-width="1" font-family="sans-serif" font-size="7.5" font-style="normal" font-weight="normal" text-anchor="start" xml:space="preserve"><tspan id="tspan4355" x="85.117" y="34.256">5</tspan></text><text id="text4353-3" x="32.247" y="34.256" fill="#000" stroke-width="1" font-family="sans-serif" font-size="7.5" font-style="normal" font-weight="normal" text-anchor="start" xml:space="preserve"><tspan id="tspan4375" x="32.247" y="34.256">1</tspan></text><text id="text4353-3-0" x="80.589" y="56.283" fill="#000" stroke-width="1" font-family="sans-serif" font-size="7.5" font-style="normal" font-weight="normal" text-anchor="start" xml:space="preserve"><tspan id="tspan4395" x="80.589" y="56.283">9</tspan></text><text id="text4353-3-0-9" x="35.524" y="56.283" fill="#000" stroke-width="1" font-family="sans-serif" font-size="7.5" font-style="normal" font-weight="normal" text-anchor="start" xml:space="preserve"><tspan id="tspan4415" x="35.524" y="56.283">6</tspan></text><text xml:space="preserve" style="fill:#000" id="text1003" x="14.985" y="77.524"><tspan id="tspan1001" x="14.985" y="77.524">Front View Male</tspan></text></g></svg>